<?xml version="1.0" encoding="UTF-8"?>
<svg id="Layer_1" data-name="Layer 1" xmlns="http://www.w3.org/2000/svg" viewBox="0 0 32 32">
  <defs>
    <style>
      .cls-1 {
        fill: #000;
      }

      .cls-1, .cls-2 {
        stroke-width: 0px;
      }

      .cls-2 {
        fill: #1a92ff;
      }
    </style>
  </defs>
  <path class="cls-1" d="M2.16,16.74c0-2.96,2.01-5.27,5.05-5.27,2.23,0,3.88,1.05,3.93,3.41h-2.95c-.05-.69-.27-1.22-1.05-1.22-1.32,0-1.86,1.87-1.86,3.11,0,.82.28,1.54,1.19,1.54.7,0,1.31-.49,1.56-1.51h2.93c-.4,2.39-2.24,3.7-4.45,3.72-2.29,0-4.35-1.04-4.35-3.78Z"/>
  <path class="cls-1" d="M11.46,11.72h3.16l.18,3.1c.03.69.07,1.82.07,1.82h.03s.42-1.19.72-1.89l1.32-3.03h2.63l.13,3.03c.03.75.07,1.92.07,1.92h.03s.45-1.17.75-1.86l1.37-3.1h3.2l-4.2,8.54h-2.98l-.25-3.58c-.05-.7-.07-1.67-.07-1.67h-.03s-.33,1-.62,1.67l-1.54,3.58h-2.96l-1.02-8.54Z"/>
  <path class="cls-2" d="M26.65,17.06h3.2l-.62,3.2h-3.2l.62-3.2Z"/>
</svg>